<?xml version="1.0" encoding="UTF-8" standalone="no"?><svg xmlns="http://www.w3.org/2000/svg" xmlns:xlink="http://www.w3.org/1999/xlink" contentScriptType="application/ecmascript" contentStyleType="text/css" height="716px" preserveAspectRatio="none" style="width:615px;height:716px;" version="1.1" viewBox="0 0 615 716" width="615px" zoomAndPan="magnify"><defs><filter height="300%" id="f10ej724mydjvk" width="300%" x="-1" y="-1"><feGaussianBlur result="blurOut" stdDeviation="2.0"/><feColorMatrix in="blurOut" result="blurOut2" type="matrix" values="0 0 0 0 0 0 0 0 0 0 0 0 0 0 0 0 0 0 .4 0"/><feOffset dx="4.0" dy="4.0" in="blurOut2" result="blurOut3"/><feBlend in="SourceGraphic" in2="blurOut3" mode="normal"/></filter></defs><g><!--cluster javax.swing--><polygon fill="#FFFFFF" filter="url(#f10ej724mydjvk)" points="22,24,120,24,127,46.2969,338,46.2969,338,244,22,244,22,24" style="stroke: #000000; stroke-width: 2.0;"/><line style="stroke: #000000; stroke-width: 2.0;" x1="22" x2="127" y1="46.2969" y2="46.2969"/><text fill="#000000" font-family="sans-serif" font-size="14" font-weight="bold" lengthAdjust="spacingAndGlyphs" textLength="92" x="26" y="38.9951">javax.swing</text><!--cluster exercise--><polygon fill="#FFFFFF" filter="url(#f10ej724mydjvk)" points="22,268,95,268,102,290.2969,593,290.2969,593,704,22,704,22,268" style="stroke: #000000; stroke-width: 2.0;"/><line style="stroke: #000000; stroke-width: 2.0;" x1="22" x2="102" y1="290.2969" y2="290.2969"/><text fill="#000000" font-family="sans-serif" font-size="14" font-weight="bold" lengthAdjust="spacingAndGlyphs" textLength="67" x="26" y="282.9951">exercise</text><!--class JComponent--><rect fill="#FEFECE" filter="url(#f10ej724mydjvk)" height="60.8047" id="JComponent" style="stroke: #A80036; stroke-width: 1.5;" width="284" x="38" y="59"/><ellipse cx="138.75" cy="75" fill="#A9DCDF" rx="11" ry="11" style="stroke: #A80036; stroke-width: 1.0;"/><path d="M138.8594,70.3906 L137.7031,75.25 L140.0313,75.25 L138.8594,70.3906 Z M137.375,68.25 L140.3594,68.25 L143.7188,80.25 L141.2656,80.25 L140.5,77.25 L137.2188,77.25 L136.4688,80.25 L134.0313,80.25 L137.375,68.25 Z "/><text fill="#000000" font-family="sans-serif" font-size="12" font-style="italic" lengthAdjust="spacingAndGlyphs" textLength="74" x="159.25" y="79.1543">JComponent</text><line style="stroke: #A80036; stroke-width: 1.5;" x1="39" x2="321" y1="91" y2="91"/><line style="stroke: #A80036; stroke-width: 1.5;" x1="39" x2="321" y1="99" y2="99"/><ellipse cx="49" cy="110.9023" fill="#84BE84" rx="3" ry="3" style="stroke: #038048; stroke-width: 1.0;"/><text fill="#000000" font-family="sans-serif" font-size="11" lengthAdjust="spacingAndGlyphs" textLength="258" x="58" y="113.2104">paintComponent(g : java.awt.Graphics) : void</text><!--class JPanel--><rect fill="#FEFECE" filter="url(#f10ej724mydjvk)" height="48" id="JPanel" style="stroke: #A80036; stroke-width: 1.5;" width="68" x="146" y="180"/><ellipse cx="161" cy="196" fill="#ADD1B2" rx="11" ry="11" style="stroke: #A80036; stroke-width: 1.0;"/><path d="M163.9688,201 Q163.3906,201.5 162.75,201.75 Q162.1094,202 161.4063,202 Q158.9063,202 157.5859,200.4609 Q156.2656,198.9219 156.2656,196 Q156.2656,193.0781 157.5859,191.5391 Q158.9063,190 161.4063,190 Q162.1094,190 162.7578,190.25 Q163.4063,190.5 163.9688,191 L163.9688,194 Q163.3438,192.9688 162.75,192.4844 Q162.1563,192 161.5156,192 Q160.1875,192 159.5,193.0078 Q158.8125,194.0156 158.8125,196 Q158.8125,197.9844 159.5,198.9922 Q160.1875,200 161.5156,200 Q162.1563,200 162.75,199.5156 Q163.3438,199.0313 163.9688,198 L163.9688,201 Z "/><text fill="#000000" font-family="sans-serif" font-size="12" lengthAdjust="spacingAndGlyphs" textLength="36" x="175" y="200.1543">JPanel</text><line style="stroke: #A80036; stroke-width: 1.5;" x1="147" x2="213" y1="212" y2="212"/><line style="stroke: #A80036; stroke-width: 1.5;" x1="147" x2="213" y1="220" y2="220"/><!--class DrawingPanel--><rect fill="#FEFECE" filter="url(#f10ej724mydjvk)" height="60.8047" id="DrawingPanel" style="stroke: #A80036; stroke-width: 1.5;" width="284" x="38" y="303"/><ellipse cx="134.75" cy="319" fill="#ADD1B2" rx="11" ry="11" style="stroke: #A80036; stroke-width: 1.0;"/><path d="M137.7188,324 Q137.1406,324.5 136.5,324.75 Q135.8594,325 135.1563,325 Q132.6563,325 131.3359,323.4609 Q130.0156,321.9219 130.0156,319 Q130.0156,316.0781 131.3359,314.5391 Q132.6563,313 135.1563,313 Q135.8594,313 136.5078,313.25 Q137.1563,313.5 137.7188,314 L137.7188,317 Q137.0938,315.9688 136.5,315.4844 Q135.9063,315 135.2656,315 Q133.9375,315 133.25,316.0078 Q132.5625,317.0156 132.5625,319 Q132.5625,320.9844 133.25,321.9922 Q133.9375,323 135.2656,323 Q135.9063,323 136.5,322.5156 Q137.0938,322.0313 137.7188,321 L137.7188,324 Z "/><text fill="#000000" font-family="sans-serif" font-size="12" lengthAdjust="spacingAndGlyphs" textLength="82" x="155.25" y="323.1543">DrawingPanel</text><line style="stroke: #A80036; stroke-width: 1.5;" x1="39" x2="321" y1="335" y2="335"/><line style="stroke: #A80036; stroke-width: 1.5;" x1="39" x2="321" y1="343" y2="343"/><ellipse cx="49" cy="354.9023" fill="#84BE84" rx="3" ry="3" style="stroke: #038048; stroke-width: 1.0;"/><text fill="#000000" font-family="sans-serif" font-size="11" lengthAdjust="spacingAndGlyphs" textLength="258" x="58" y="357.2104">paintComponent(g : java.awt.Graphics) : void</text><!--class Drawable--><rect fill="#FEFECE" filter="url(#f10ej724mydjvk)" height="60.8047" id="Drawable" style="stroke: #A80036; stroke-width: 1.5;" width="219" x="357.5" y="303"/><ellipse cx="434.75" cy="319" fill="#B4A7E5" rx="11" ry="11" style="stroke: #A80036; stroke-width: 1.0;"/><path d="M431.1719,315 L431.1719,313 L438.5625,313 L438.5625,315 L436.0938,315 L436.0938,323 L438.5625,323 L438.5625,325 L431.1719,325 L431.1719,323 L433.6406,323 L433.6406,315 L431.1719,315 Z "/><text fill="#000000" font-family="sans-serif" font-size="12" font-style="italic" lengthAdjust="spacingAndGlyphs" textLength="56" x="455.25" y="323.1543">Drawable</text><line style="stroke: #A80036; stroke-width: 1.5;" x1="358.5" x2="575.5" y1="335" y2="335"/><line style="stroke: #A80036; stroke-width: 1.5;" x1="358.5" x2="575.5" y1="343" y2="343"/><ellipse cx="368.5" cy="354.9023" fill="#84BE84" rx="3" ry="3" style="stroke: #038048; stroke-width: 1.0;"/><text fill="#000000" font-family="sans-serif" font-size="11" lengthAdjust="spacingAndGlyphs" textLength="193" x="377.5" y="357.2104">draw(g : java.awt.Graphics) : void</text><!--class ConvexPolygon--><rect fill="#FEFECE" filter="url(#f10ej724mydjvk)" height="48" id="ConvexPolygon" style="stroke: #A80036; stroke-width: 1.5;" width="123" x="405.5" y="424"/><ellipse cx="420.5" cy="440" fill="#ADD1B2" rx="11" ry="11" style="stroke: #A80036; stroke-width: 1.0;"/><path d="M423.4688,445 Q422.8906,445.5 422.25,445.75 Q421.6094,446 420.9063,446 Q418.4063,446 417.0859,444.4609 Q415.7656,442.9219 415.7656,440 Q415.7656,437.0781 417.0859,435.5391 Q418.4063,434 420.9063,434 Q421.6094,434 422.2578,434.25 Q422.9063,434.5 423.4688,435 L423.4688,438 Q422.8438,436.9688 422.25,436.4844 Q421.6563,436 421.0156,436 Q419.6875,436 419,437.0078 Q418.3125,438.0156 418.3125,440 Q418.3125,441.9844 419,442.9922 Q419.6875,444 421.0156,444 Q421.6563,444 422.25,443.5156 Q422.8438,443.0313 423.4688,442 L423.4688,445 Z "/><text fill="#000000" font-family="sans-serif" font-size="12" lengthAdjust="spacingAndGlyphs" textLength="91" x="434.5" y="444.1543">ConvexPolygon</text><line style="stroke: #A80036; stroke-width: 1.5;" x1="406.5" x2="527.5" y1="456" y2="456"/><line style="stroke: #A80036; stroke-width: 1.5;" x1="406.5" x2="527.5" y1="464" y2="464"/><!--class Rectangle--><rect fill="#FEFECE" filter="url(#f10ej724mydjvk)" height="48" id="Rectangle" style="stroke: #A80036; stroke-width: 1.5;" width="92" x="421" y="532"/><ellipse cx="436" cy="548" fill="#ADD1B2" rx="11" ry="11" style="stroke: #A80036; stroke-width: 1.0;"/><path d="M438.9688,553 Q438.3906,553.5 437.75,553.75 Q437.1094,554 436.4063,554 Q433.9063,554 432.5859,552.4609 Q431.2656,550.9219 431.2656,548 Q431.2656,545.0781 432.5859,543.5391 Q433.9063,542 436.4063,542 Q437.1094,542 437.7578,542.25 Q438.4063,542.5 438.9688,543 L438.9688,546 Q438.3438,544.9688 437.75,544.4844 Q437.1563,544 436.5156,544 Q435.1875,544 434.5,545.0078 Q433.8125,546.0156 433.8125,548 Q433.8125,549.9844 434.5,550.9922 Q435.1875,552 436.5156,552 Q437.1563,552 437.75,551.5156 Q438.3438,551.0313 438.9688,550 L438.9688,553 Z "/><text fill="#000000" font-family="sans-serif" font-size="12" lengthAdjust="spacingAndGlyphs" textLength="60" x="450" y="552.1543">Rectangle</text><line style="stroke: #A80036; stroke-width: 1.5;" x1="422" x2="512" y1="564" y2="564"/><line style="stroke: #A80036; stroke-width: 1.5;" x1="422" x2="512" y1="572" y2="572"/><!--class Square--><rect fill="#FEFECE" filter="url(#f10ej724mydjvk)" height="48" id="Square" style="stroke: #A80036; stroke-width: 1.5;" width="75" x="429.5" y="640"/><ellipse cx="444.5" cy="656" fill="#ADD1B2" rx="11" ry="11" style="stroke: #A80036; stroke-width: 1.0;"/><path d="M447.4688,661 Q446.8906,661.5 446.25,661.75 Q445.6094,662 444.9063,662 Q442.4063,662 441.0859,660.4609 Q439.7656,658.9219 439.7656,656 Q439.7656,653.0781 441.0859,651.5391 Q442.4063,650 444.9063,650 Q445.6094,650 446.2578,650.25 Q446.9063,650.5 447.4688,651 L447.4688,654 Q446.8438,652.9688 446.25,652.4844 Q445.6563,652 445.0156,652 Q443.6875,652 443,653.0078 Q442.3125,654.0156 442.3125,656 Q442.3125,657.9844 443,658.9922 Q443.6875,660 445.0156,660 Q445.6563,660 446.25,659.5156 Q446.8438,659.0313 447.4688,658 L447.4688,661 Z "/><text fill="#000000" font-family="sans-serif" font-size="12" lengthAdjust="spacingAndGlyphs" textLength="43" x="458.5" y="660.1543">Square</text><line style="stroke: #A80036; stroke-width: 1.5;" x1="430.5" x2="503.5" y1="672" y2="672"/><line style="stroke: #A80036; stroke-width: 1.5;" x1="430.5" x2="503.5" y1="680" y2="680"/><!--link JComponent to JPanel--><path d="M180,140.107 C180,153.876 180,168.185 180,179.669 " fill="none" id="JComponent-JPanel" style="stroke: #A80036; stroke-width: 1.0;"/><polygon fill="none" points="173,140.058,180,120.058,187,140.058,173,140.058" style="stroke: #A80036; stroke-width: 1.0;"/><!--link JPanel to DrawingPanel--><path d="M180,248.34 C180,266.286 180,286.643 180,302.841 " fill="none" id="JPanel-DrawingPanel" style="stroke: #A80036; stroke-width: 1.0;"/><polygon fill="none" points="173,248.089,180,228.089,187,248.089,173,248.089" style="stroke: #A80036; stroke-width: 1.0;"/><!--link DrawingPanel to Drawable--><path d="M335.365,333.5 C338.359,333.5 341.353,333.5 344.347,333.5 " fill="none" id="DrawingPanel-Drawable" style="stroke: #A80036; stroke-width: 1.0;"/><polygon fill="#A80036" points="357.475,333.5,348.475,329.5,352.475,333.5,348.475,337.5,357.475,333.5" style="stroke: #A80036; stroke-width: 1.0;"/><line style="stroke: #A80036; stroke-width: 1.0;" x1="352.475" x2="344.475" y1="333.5" y2="333.5"/><polygon fill="#FFFFFF" points="322.099,333.5,328.099,337.5,334.099,333.5,328.099,329.5,322.099,333.5" style="stroke: #A80036; stroke-width: 1.0;"/><!--link Drawable to ConvexPolygon--><path d="M467,384.107 C467,397.876 467,412.185 467,423.669 " fill="none" id="Drawable-ConvexPolygon" style="stroke: #A80036; stroke-width: 1.0;"/><polygon fill="none" points="460,384.058,467,364.058,474,384.058,460,384.058" style="stroke: #A80036; stroke-width: 1.0;"/><!--link ConvexPolygon to Rectangle--><path d="M467,492.024 C467,505.579 467,520.038 467,531.678 " fill="none" id="ConvexPolygon-Rectangle" style="stroke: #A80036; stroke-width: 1.0;"/><polygon fill="none" points="460,492,467,472,474,492,460,492" style="stroke: #A80036; stroke-width: 1.0;"/><!--link Rectangle to Square--><path d="M467,600.024 C467,613.579 467,628.0381 467,639.6784 " fill="none" id="Rectangle-Square" style="stroke: #A80036; stroke-width: 1.0;"/><polygon fill="none" points="460,600,467,580,474,600,460,600" style="stroke: #A80036; stroke-width: 1.0;"/><!--
@startuml

package javax.swing {
	abstract class JComponent {
		+ paintComponent(g : java.awt.Graphics) : void
	}

	class JPanel

	JComponent <|- - JPanel
}

package exercise {
	class DrawingPanel {
		+ paintComponent(g : java.awt.Graphics) : void
	}

	interface Drawable {
		+ draw(g : java.awt.Graphics) : void
	}

	JPanel <|- - DrawingPanel
	DrawingPanel o-> Drawable

	Drawable <|- - ConvexPolygon
	ConvexPolygon <|- - Rectangle
	Rectangle <|- - Square
}
@enduml

PlantUML version 1.2017.15(Mon Jul 03 18:45:34 CEST 2017)
(GPL source distribution)
Java Runtime: OpenJDK Runtime Environment
JVM: OpenJDK 64-Bit Server VM
Java Version: 1.8.0_152-release-915-b11
Operating System: Linux
OS Version: 4.13.0-16-generic
Default Encoding: UTF-8
Language: en
Country: US
--></g></svg>